HIERARCHY
ROOT joint_0
{
	OFFSET 0.000000 0.000000 0.000000
	CHANNELS 6 Xposition Yposition Zposition Zrotation Yrotation Xrotation 
	JOINT joint_1
	{
		OFFSET 6.004005 -1.946999 100.587036
		CHANNELS 3 Zrotation Yrotation Xrotation
		JOINT joint_2
		{
			OFFSET -4.601006 -0.824997 91.925903
			CHANNELS 3 Zrotation Yrotation Xrotation
			JOINT joint_3
			{
				OFFSET -5.420998 -1.130005 91.774048
				CHANNELS 3 Zrotation Yrotation Xrotation
				JOINT joint_4
				{
					OFFSET 4.308998 -3.777992 123.473999
					CHANNELS 3 Zrotation Yrotation Xrotation
					JOINT joint_5
					{
						OFFSET 25.565002 -6.305008 79.437988
						CHANNELS 3 Zrotation Yrotation Xrotation
						End Site
						{
							OFFSET 0.000000 0.000000 0.000000
						}
					}
				}
				JOINT joint_6
				{
					OFFSET -1.750000 -28.655998 68.557983
					CHANNELS 3 Zrotation Yrotation Xrotation
					JOINT joint_7
					{
						OFFSET -17.692001 -116.544006 -17.244019
						CHANNELS 3 Zrotation Yrotation Xrotation
						JOINT joint_8
						{
							OFFSET 27.063004 -23.640991 -266.895020
							CHANNELS 3 Zrotation Yrotation Xrotation
							JOINT joint_9
							{
								OFFSET 40.722000 -15.761017 -232.488953
								CHANNELS 3 Zrotation Yrotation Xrotation
								End Site
								{
									OFFSET 0.000000 0.000000 0.000000
								}
							}
						}
					}
				}
				JOINT joint_10
				{
					OFFSET 6.593002 24.457001 69.892944
					CHANNELS 3 Zrotation Yrotation Xrotation
					JOINT joint_11
					{
						OFFSET 24.311996 114.920002 -19.872925
						CHANNELS 3 Zrotation Yrotation Xrotation
						JOINT joint_12
						{
							OFFSET 21.081001 15.319000 -268.037964
							CHANNELS 3 Zrotation Yrotation Xrotation
							JOINT joint_13
							{
								OFFSET 27.794006 -8.947001 -234.744080
								CHANNELS 3 Zrotation Yrotation Xrotation
								End Site
								{
									OFFSET 0.000000 0.000000 0.000000
								}
							}
						}
					}
				}
			}
		}
	}
	JOINT joint_14
	{
		OFFSET -6.627998 -80.520004 -98.790039
		CHANNELS 3 Zrotation Yrotation Xrotation
		JOINT joint_15
		{
			OFFSET -43.638000 -13.751999 -502.538971
			CHANNELS 3 Zrotation Yrotation Xrotation
			JOINT joint_16
			{
				OFFSET -39.532999 -9.912994 -398.071007
				CHANNELS 3 Zrotation Yrotation Xrotation
				JOINT joint_17
				{
					OFFSET 174.940004 -34.660995 -75.688002
					CHANNELS 3 Zrotation Yrotation Xrotation
					End Site
					{
						OFFSET 0.000000 0.000000 0.000000
					}
				}
			}
		}
	}
	JOINT joint_18
	{
		OFFSET 12.591003 79.842003 -98.765015
		CHANNELS 3 Zrotation Yrotation Xrotation
		JOINT joint_19
		{
			OFFSET -39.080002 -1.297001 -503.101013
			CHANNELS 3 Zrotation Yrotation Xrotation
			JOINT joint_20
			{
				OFFSET -51.570000 -0.514000 -396.815987
				CHANNELS 3 Zrotation Yrotation Xrotation
				JOINT joint_21
				{
					OFFSET 178.987999 -11.521999 -73.244003
					CHANNELS 3 Zrotation Yrotation Xrotation
					End Site
					{
						OFFSET 0.000000 0.000000 0.000000
					}
				}
			}
		}
	}
}
MOTION
Frames: 10
Frame Time: 0.016667
-2454.673828 937.046204 1097.630981 4.012051 1.411380 0.089200 0.348894 -2.834485 -2.112988 0.489615 0.397562 0.429590 0.428227 -0.607108 -0.366705 -0.203291 -3.376241 -0.273492 0.000000 0.000000 0.000000 3.624968 1.662797 1.365688 -0.047441 1.915929 3.316048 -0.889164 4.507611 -2.809118 0.000000 0.000000 0.000000 1.892391 0.492622 2.253494 -0.211322 1.413397 -3.808950 0.663782 1.623184 7.045592 0.000000 0.000000 0.000000 1.834465 -1.525490 -2.131865 1.577357 -2.606539 1.186495 1.508601 1.826651 1.013041 0.000000 0.000000 0.000000 -0.787506 -4.146137 4.046912 -0.392051 0.751859 -0.893828 -0.492690 1.016036 -0.135031 0.000000 0.000000 0.000000 
-2454.636719 937.043884 1097.612061 4.009043 1.399262 0.082856 0.346315 -2.829291 -2.095802 0.485801 0.396135 0.424408 0.424988 -0.604655 -0.363088 -0.202070 -3.371823 -0.275897 0.000000 0.000000 0.000000 3.635446 1.670002 1.368767 -0.047954 1.924158 3.323389 -0.890189 4.504501 -2.816351 0.000000 0.000000 0.000000 1.905452 0.508909 2.244521 -0.213591 1.428508 -3.824623 0.663989 1.640706 7.056094 0.000000 0.000000 0.000000 1.834779 -1.512608 -2.130341 1.577061 -2.602078 1.197078 1.509610 1.822946 1.012738 0.000000 0.000000 0.000000 -0.786238 -4.144051 4.058354 -0.389200 0.778030 -0.901718 -0.490921 1.017410 -0.134226 0.000000 0.000000 0.000000 
-2454.604492 937.039307 1097.593018 4.003160 1.387534 0.075893 0.343831 -2.818394 -2.074192 0.481676 0.393618 0.417295 0.421720 -0.600626 -0.357267 -0.200039 -3.368429 -0.281021 0.000000 0.000000 0.000000 3.645622 1.674506 1.369450 -0.048317 1.929437 3.329474 -0.891166 4.500183 -2.824150 0.000000 0.000000 0.000000 1.920404 0.523231 2.232294 -0.216287 1.440843 -3.841534 0.664372 1.660224 7.069396 0.000000 0.000000 0.000000 1.835826 -1.501939 -2.128530 1.577295 -2.595335 1.208690 1.511293 1.818435 1.012567 0.000000 0.000000 0.000000 -0.784757 -4.143935 4.070727 -0.386020 0.807251 -0.910264 -0.488925 1.019827 -0.133260 0.000000 0.000000 0.000000 
-2454.561035 937.028259 1097.573975 3.997940 1.378027 0.069004 0.342819 -2.810110 -2.054614 0.479240 0.391684 0.411955 0.419921 -0.597160 -0.353049 -0.198337 -3.364031 -0.284884 0.000000 0.000000 0.000000 3.648547 1.680527 1.370655 -0.048436 1.935077 3.336406 -0.891852 4.497242 -2.829799 0.000000 0.000000 0.000000 1.929371 0.536984 2.222710 -0.218874 1.454329 -3.859016 0.664635 1.678774 7.080762 0.000000 0.000000 0.000000 1.836248 -1.493149 -2.126815 1.576735 -2.588487 1.221535 1.512323 1.814364 1.012200 0.000000 0.000000 0.000000 -0.783732 -4.145126 4.083638 -0.383256 0.834538 -0.918859 -0.487365 1.025939 -0.132235 0.000000 0.000000 0.000000 
-2454.496826 937.007141 1097.555054 3.996084 1.372042 0.063289 0.345475 -2.809540 -2.042088 0.481031 0.391167 0.408953 0.422054 -0.596051 -0.350586 -0.197872 -3.356323 -0.284144 0.000000 0.000000 0.000000 3.635000 1.691449 1.373902 -0.048347 1.943117 3.345662 -0.892274 4.496683 -2.832792 0.000000 0.000000 0.000000 1.921773 0.551006 2.220723 -0.220985 1.473021 -3.878417 0.664720 1.693857 7.088174 0.000000 0.000000 0.000000 1.835688 -1.486588 -2.125691 1.575114 -2.581918 1.234256 1.512296 1.810966 1.011510 0.000000 0.000000 0.000000 -0.783023 -4.147990 4.095955 -0.380916 0.857897 -0.926745 -0.486172 1.036930 -0.131045 0.000000 0.000000 0.000000 
-2454.420654 936.978516 1097.536987 3.996650 1.368451 0.058666 0.350883 -2.811732 -2.034487 0.485935 0.390671 0.407640 0.427106 -0.596629 -0.349271 -0.198072 -3.346381 -0.280830 0.000000 0.000000 0.000000 3.608098 1.705345 1.378502 -0.047995 1.952188 3.355852 -0.892231 4.497304 -2.832804 0.000000 0.000000 0.000000 1.901780 0.564340 2.223875 -0.222919 1.494621 -3.899444 0.664627 1.707487 7.092611 0.000000 0.000000 0.000000 1.834190 -1.482033 -2.125283 1.572409 -2.574741 1.247191 1.511250 1.807795 1.010427 0.000000 0.000000 0.000000 -0.782944 -4.152332 4.107409 -0.379369 0.878489 -0.933514 -0.485648 1.053030 -0.129798 0.000000 0.000000 0.000000 
-2454.326660 936.939697 1097.515991 3.999828 1.369010 0.053017 0.355893 -2.822091 -2.027188 0.490551 0.392589 0.406854 0.431709 -0.597652 -0.349427 -0.198387 -3.334221 -0.276568 0.000000 0.000000 0.000000 3.580711 1.721933 1.383939 -0.047650 1.963607 3.368732 -0.892275 4.497966 -2.833165 0.000000 0.000000 0.000000 1.880120 0.578412 2.227639 -0.224292 1.516857 -3.917617 0.664549 1.718052 7.095808 0.000000 0.000000 0.000000 1.831643 -1.479829 -2.123691 1.568626 -2.569767 1.261541 1.509260 1.805406 1.009089 0.000000 0.000000 0.000000 -0.784046 -4.159278 4.122264 -0.378417 0.896269 -0.943966 -0.486160 1.070479 -0.128886 0.000000 0.000000 0.000000 
-2454.217041 936.884583 1097.489990 4.006506 1.374207 0.045389 0.358373 -2.838933 -2.019695 0.492657 0.394232 0.406277 0.433767 -0.601137 -0.349476 -0.197827 -3.317781 -0.273805 0.000000 0.000000 0.000000 3.559901 1.742510 1.389234 -0.047418 1.979266 3.386388 -0.892743 4.498998 -2.835437 0.000000 0.000000 0.000000 1.864300 0.595506 2.227913 -0.224620 1.539050 -3.928768 0.664588 1.723164 7.098296 0.000000 0.000000 0.000000 1.827685 -1.479594 -2.119783 1.563484 -2.568981 1.278166 1.506149 1.803279 1.007316 0.000000 0.000000 0.000000 -0.787698 -4.169057 4.143286 -0.378945 0.910602 -0.961503 -0.488957 1.087661 -0.128921 0.000000 0.000000 0.000000 
-2454.089844 936.814209 1097.461060 4.016057 1.384353 0.036577 0.359293 -2.864555 -2.014505 0.493466 0.396538 0.407692 0.434362 -0.604111 -0.350164 -0.196535 -3.297657 -0.272306 0.000000 0.000000 0.000000 3.542244 1.766215 1.394839 -0.047193 1.997986 3.407964 -0.893359 4.499601 -2.838577 0.000000 0.000000 0.000000 1.850251 0.614274 2.227061 -0.224064 1.561450 -3.934832 0.664681 1.723507 7.099231 0.000000 0.000000 0.000000 1.822600 -1.482140 -2.114374 1.557185 -2.571383 1.296683 1.502053 1.802006 1.005285 0.000000 0.000000 0.000000 -0.793168 -4.181808 4.169080 -0.380428 0.921240 -0.984891 -0.493395 1.105288 -0.129593 0.000000 0.000000 0.000000 
-2453.946289 936.739624 1097.425049 4.029321 1.396117 0.027326 0.359006 -2.891213 -2.005141 0.492663 0.399280 0.405259 0.433656 -0.608338 -0.349126 -0.195084 -3.277967 -0.271412 0.000000 0.000000 0.000000 3.525895 1.791101 1.399703 -0.047009 2.018093 3.428749 -0.893615 4.499693 -2.839991 0.000000 0.000000 0.000000 1.837499 0.632502 2.224511 -0.223630 1.582532 -3.940115 0.664689 1.724762 7.099836 0.000000 0.000000 0.000000 1.816087 -1.484253 -2.108425 1.549476 -2.575453 1.316108 1.496750 1.799219 1.002432 0.000000 0.000000 0.000000 -0.799959 -4.196017 4.196716 -0.382885 0.931730 -1.010368 -0.499035 1.125111 -0.130613 0.000000 0.000000 0.000000 
